<?xml version="1.0" ?><!DOCTYPE svg  PUBLIC '-//W3C//DTD SVG 1.1//EN'  'http://www.w3.org/Graphics/SVG/1.1/DTD/svg11.dtd'><svg height="512px" style="enable-background:new 0 0 512 512;" version="1.1" viewBox="0 0 512 512" width="512px" xml:space="preserve" xmlns="http://www.w3.org/2000/svg" xmlns:xlink="http://www.w3.org/1999/xlink"><g id="_x35_52_x2C__Death_x2C__frag_x2C__game_x2C__kill_x2C__sword"><g><path d="M249.048,178.201c-2.267-4.302-5.163-6.969-8.146-6.969    c-2.98,0-5.878,2.667-8.128,6.969c-2.625,4.961-4.246,11.9-4.246,19.672c0,7.742,1.621,14.711,4.246,19.672    c2.25,4.301,5.148,6.969,8.128,6.969c2.983,0,5.878-2.668,8.146-6.969c2.607-4.961,4.243-11.93,4.243-19.672    C253.291,190.102,251.655,183.162,249.048,178.201 M240.902,164.178c5.794,0,10.869,4.102,14.354,10.725    c3.141,5.938,5.074,14.08,5.074,22.971c0,8.889-1.934,17.033-5.074,22.969c-3.485,6.625-8.56,10.726-14.354,10.726    c-5.791,0-10.869-4.129-14.351-10.726c-3.127-5.936-5.064-14.08-5.064-22.969c0-8.891,1.937-17.033,5.064-22.971    C230.033,168.308,235.111,164.178,240.902,164.178z M275.372,279.572c0-1.951,1.576-3.527,3.527-3.527    c1.934,0,3.513,1.576,3.513,3.527v30.023h14.526l0.042-0.057l0.042-0.086l0.056-0.059l0,0    c0.818-44.506,16.088-59.531,31.375-74.586c14.736-14.512,29.537-29.107,29.537-74.359c0-32.346-13.105-61.625-34.299-82.787    c-21.177-21.192-50.456-34.297-82.789-34.297s-61.609,13.104-82.803,34.297c-21.176,21.191-34.295,50.47-34.295,82.787    c0,22.483,3.597,37.366,9.002,48.35c5.292,10.781,12.504,18.095,19.758,25.234l97.487,63.433v-17.894    c0-1.951,1.576-3.527,3.527-3.527c1.934,0,3.512,1.576,3.512,3.527v22.481l11.613,7.542h6.668V279.572z M292.863,316.65h-13.347    l9.708,6.309L292.863,316.65z M311.019,322.012l-9.865-5.677c-11.041,19.099-22.068,38.226-33.109,57.353l9.865,5.678    C288.95,360.267,299.978,341.141,311.019,322.012z M306.544,343.836l-11.975,20.732l59.132,46.599l22.756-39.4L306.544,343.836z     M106.671,270.194c54.885,27.902,109.77,55.833,164.673,83.706l5.404-9.377L92.275,238.02c-1.678-0.975-2.267-3.125-1.292-4.818    c0.976-1.662,3.127-2.236,4.818-1.289l184.474,106.533l5.418-9.406l-19.727-12.848l-0.403-0.258l-161.833-105.3l-53.352-0.86    l27.427,45.768L106.671,270.194z M310.973,118.439c1.938,0,3.514,1.605,3.514,3.527c0,1.95-1.576,3.527-3.514,3.527h-12.701    l8.988,9.004c1.376,1.377,1.376,3.613,0,4.99c-1.376,1.348-3.611,1.348-4.99,0l-11.757-11.787l-8.314,14.396    c-0.947,1.662-3.099,2.266-4.79,1.29c-1.664-0.976-2.25-3.126-1.292-4.789l7.573-13.104h-15.144c-1.947,0-3.526-1.577-3.526-3.527    c0-1.922,1.579-3.527,3.526-3.527h12.705l-8.978-8.976c-1.376-1.348-1.376-3.585,0-4.962c1.379-1.375,3.614-1.375,4.99,0    l11.757,11.758l8.304-14.396c0.962-1.692,3.109-2.266,4.805-1.29c1.66,0.945,2.235,3.098,1.288,4.789l-7.57,13.076H310.973z     M213.258,118.439c1.951,0,3.527,1.605,3.527,3.527c0,1.95-1.576,3.527-3.527,3.527h-12.701l8.988,9.004    c1.361,1.377,1.361,3.613,0,4.99c-1.376,1.348-3.611,1.348-4.991,0l-11.771-11.787l-8.286,14.396    c-0.976,1.662-3.127,2.266-4.791,1.29c-1.691-0.976-2.264-3.126-1.306-4.789l7.56-13.104h-15.129    c-1.934,0-3.513-1.577-3.513-3.527c0-1.922,1.58-3.527,3.513-3.527h12.704l-8.974-8.976c-1.365-1.348-1.365-3.585,0-4.962    c1.376-1.375,3.611-1.375,4.987,0l11.757,11.758l8.304-14.396c0.976-1.692,3.127-2.266,4.791-1.29    c1.691,0.945,2.264,3.098,1.288,4.789l-7.542,13.076H213.258z M41.633,449.967c-1.951,0-3.527-1.605-3.527-3.527    c0-1.949,1.576-3.527,3.527-3.527h307.235c1.938,0,3.527,1.578,3.527,3.527c0,1.922-1.59,3.527-3.527,3.527H41.633z     M221.533,468.636c-1.937,0-3.513-1.578-3.513-3.527c0-1.922,1.576-3.499,3.513-3.499h212.605c1.938,0,3.527,1.577,3.527,3.499    c0,1.949-1.59,3.527-3.527,3.527H221.533z M455.904,468.636c-1.951,0-3.526-1.578-3.526-3.527c0-1.922,1.575-3.499,3.526-3.499    h26.567c1.951,0,3.527,1.577,3.527,3.499c0,1.949-1.576,3.527-3.527,3.527H455.904z M29.528,468.09    c-1.948,0-3.527-1.578-3.527-3.527s1.579-3.527,3.527-3.527h100.74c1.951,0,3.527,1.578,3.527,3.527s-1.576,3.527-3.527,3.527    H29.528z M326.902,72.355c-1.491-1.261-1.664-3.469-0.414-4.96c1.246-1.462,3.471-1.663,4.945-0.401    c13.736,11.586,24.92,26.124,32.578,42.613c7.385,15.887,11.497,33.608,11.497,52.248c0,48.176-15.855,63.805-31.673,79.376    c-14.537,14.31-29.049,28.591-29.309,72.093c0,1.949-1.59,3.498-3.509,3.498c-1.951,0-3.499-1.577-3.499-3.527    c0.27-46.426,15.814-61.74,31.399-77.082c14.739-14.539,29.536-29.105,29.536-74.357c0-17.637-3.871-34.326-10.823-49.295    C350.402,97.018,339.853,83.311,326.902,72.355z M87.871,268.561v126.375c0,4.934,2.021,9.407,5.264,12.646    c3.253,3.241,7.742,5.277,12.645,5.277c4.935,0,9.437-2.008,12.676-5.247c3.239-3.27,5.247-7.743,5.247-12.677v-50.698h7.054    v0.229c0.06,4.846,2.067,9.234,5.278,12.416l0.144,0.173c3.239,3.154,7.654,5.104,12.501,5.104c4.934,0,9.405-2.007,12.648-5.276    l0.172-0.143c3.096-3.184,5.033-7.514,5.103-12.273v-0.229h7.054v61.825c0,4.904,2.007,9.405,5.247,12.646l0.158,0.172    c3.229,3.155,7.644,5.077,12.491,5.077c4.945,0,9.433-2.008,12.676-5.249c3.239-3.241,5.247-7.742,5.247-12.646v-28.246h7.054    v0.229c0.056,4.847,2.063,9.233,5.274,12.417c3.243,3.27,7.714,5.276,12.648,5.276c4.931,0,9.405-2.007,12.645-5.276l0.172-0.144    c3.155-3.212,5.106-7.655,5.106-12.503V352.18L87.871,268.561z" style="fill-rule:evenodd;clip-rule:evenodd;"/></g></g><g id="Layer_1"/></svg>